<svg class="icon" viewBox="0 0 1024 1024" version="1.1" xmlns="http://www.w3.org/2000/svg"
     width="200" height="200">
    <path d="M902.272 180.992a65.664 65.664 0 0 0-43.2-15.744h-4.544c-0.896 0-11.072 0.96-26.752 0.96-26.688 0-77.184-1.792-125.888-13.056-62.528-13.888-135.168-79.36-156.352-92.416A70.272 70.272 0 0 0 510.592 51.2c-11.968 0-23.872 3.52-34.944 9.6-2.752 1.728-78.208 75.776-151.68 92.352-48.768 11.264-101.12 13.056-126.912 13.056-16.64 0-26.56-0.96-27.52-0.96H165.76a63.68 63.68 0 0 0-43.2 15.744 54.4 54.4 0 0 0-20.224 41.856v144.64c0 532.992 381.44 601.792 397.12 604.416 3.712 0.896 7.36 0.896 11.072 0.896 3.712 0 7.36 0 11.072-0.896 16.512-2.56 399.936-71.424 399.936-604.48V222.848a56.768 56.768 0 0 0-19.328-41.856zM316.16 716.8a34.624 34.624 0 0 1-34.56-34.56c0-1.28 0-2.56 0.256-3.84a12.16 12.16 0 0 1 1.28-8.064L442.88 380.032V279.04h-11.52a11.584 11.584 0 0 1-11.52-11.52c0-6.336 5.184-11.52 11.52-11.52h161.28c6.336 0 11.52 5.184 11.52 11.52 0 6.336-5.184 11.52-11.52 11.52h-11.52v100.992l159.68 290.304a12.16 12.16 0 0 1 1.344 8 34.624 34.624 0 0 1-34.304 38.4l-391.68 0.064z m299.648-169.344c-28.16 0-51.2 22.976-51.2 51.2 0 28.16 23.04 51.2 51.2 51.2 28.16 0 51.2-23.04 51.2-51.2 0-28.224-23.04-51.2-51.2-51.2z m0 76.8a25.792 25.792 0 0 1-25.6-25.6c0-14.08 11.584-25.6 25.6-25.6 14.016 0 25.6 11.52 25.6 25.6 0 14.016-11.584 25.6-25.6 25.6zM512 460.8A25.6 25.6 0 1 0 512 512a25.6 25.6 0 0 0 0-51.2zM435.2 563.2c-28.16 0-51.2 23.04-51.2 51.2 0 28.16 23.04 51.2 51.2 51.2 28.16 0 51.2-23.04 51.2-51.2 0-28.16-23.04-51.2-51.2-51.2z m0 76.8a25.792 25.792 0 0 1-25.6-25.6c0-14.016 11.584-25.6 25.6-25.6 14.016 0 25.6 11.584 25.6 25.6 0 14.016-11.584 25.6-25.6 25.6z"
          fill="#37B7C3"/>
</svg>